{
  "accessors": [
    {
      "bufferView": 2,
      "componentType": 5126,
      "count": 1043,
      "max": [
        -89.05979919433594,
        67.05322265625,
        -15.995162963867188
      ],
      "min": [
        -134.4547882080078,
        30.50872802734375,
        -50.25362777709961
      ],
      "type": "VEC3"
    },
    {
      "bufferView": 2,
      "byteOffset": 12516,
      "componentType": 5126,
      "count": 1043,
      "max": [
        0.9548283815383911,
        0.996837317943573,
        0.9872072339057922
      ],
      "min": [
        -0.9566532373428345,
        -0.9835986495018005,
        -0.9902519583702087
      ],
      "type": "VEC3"
    },
    {
      "bufferView": 1,
      "componentType": 5126,
      "count": 1043,
      "max": [
        1.0,
        0.6791712045669556
      ],
      "min": [
        -0.4872013330459595,
        -0.5511970520019531
      ],
      "type": "VEC2"
    },
    {
      "bufferView": 0,
      "componentType": 5125,
      "count": 1212,
      "type": "SCALAR"
    },
    {
      "bufferView": 2,
      "byteOffset": 25032,
      "componentType": 5126,
      "count": 1043,
      "max": [
        -89.05979919433594,
        67.05322265625,
        -15.995162963867188
      ],
      "min": [
        -134.4547882080078,
        30.50872802734375,
        -50.25362777709961
      ],
      "type": "VEC3"
    },
    {
      "bufferView": 2,
      "byteOffset": 37548,
      "componentType": 5126,
      "count": 1043,
      "max": [
        0.9548283815383911,
        0.996837317943573,
        0.9872072339057922
      ],
      "min": [
        -0.9566532373428345,
        -0.9835986495018005,
        -0.9902519583702087
      ],
      "type": "VEC3"
    },
    {
      "bufferView": 1,
      "byteOffset": 8344,
      "componentType": 5126,
      "count": 1043,
      "max": [
        1.0,
        0.6791712045669556
      ],
      "min": [
        -0.4872013330459595,
        -0.5511970520019531
      ],
      "type": "VEC2"
    },
    {
      "bufferView": 0,
      "byteOffset": 4848,
      "componentType": 5125,
      "count": 1212,
      "type": "SCALAR"
    },
    {
      "bufferView": 2,
      "byteOffset": 50064,
      "componentType": 5126,
      "count": 1043,
      "max": [
        -30.21738052368164,
        -62.51966857910156,
        19.66564178466797
      ],
      "min": [
        -119.73914337158203,
        -143.25308227539063,
        -50.720943450927734
      ],
      "type": "VEC3"
    },
    {
      "bufferView": 2,
      "byteOffset": 62580,
      "componentType": 5126,
      "count": 1043,
      "max": [
        0.9455734491348267,
        0.9615708589553833,
        0.9872087836265564
      ],
      "min": [
        -0.9130635857582092,
        -0.975994884967804,
        -0.9902519583702087
      ],
      "type": "VEC3"
    },
    {
      "bufferView": 1,
      "byteOffset": 16688,
      "componentType": 5126,
      "count": 1043,
      "max": [
        1.0,
        0.6791712045669556
      ],
      "min": [
        -0.4872013330459595,
        -0.5511970520019531
      ],
      "type": "VEC2"
    },
    {
      "bufferView": 0,
      "byteOffset": 9696,
      "componentType": 5125,
      "count": 1212,
      "type": "SCALAR"
    },
    {
      "bufferView": 2,
      "byteOffset": 75096,
      "componentType": 5126,
      "count": 1043,
      "max": [
        -1.6976261138916016,
        48.5611572265625,
        20.650840759277344
      ],
      "min": [
        -72.15135192871094,
        -48.585182189941406,
        -49.73574447631836
      ],
      "type": "VEC3"
    },
    {
      "bufferView": 2,
      "byteOffset": 87612,
      "componentType": 5126,
      "count": 1043,
      "max": [
        0.9902474880218506,
        0.9987955093383789,
        0.987208902835846
      ],
      "min": [
        -0.9869827032089233,
        -0.9987955689430237,
        -0.990251898765564
      ],
      "type": "VEC3"
    },
    {
      "bufferView": 1,
      "byteOffset": 25032,
      "componentType": 5126,
      "count": 1043,
      "max": [
        1.0,
        0.6791712045669556
      ],
      "min": [
        -0.4872013330459595,
        -0.5511970520019531
      ],
      "type": "VEC2"
    },
    {
      "bufferView": 0,
      "byteOffset": 14544,
      "componentType": 5125,
      "count": 1212,
      "type": "SCALAR"
    }
  ],
  "asset": {
    "extras": {
      "author": "Emilio.Gallo (https://sketchfab.com/Emilio.Gallo)",
      "license": "CC-BY-4.0 (http://creativecommons.org/licenses/by/4.0/)",
      "source": "https://sketchfab.com/3d-models/diamonds-c5c593e31e364301a75b6640720df566",
      "title": "Diamonds"
    },
    "generator": "Sketchfab-12.65.0",
    "version": "2.0"
  },
  "bufferViews": [
    {
      "buffer": 0,
      "byteLength": 19392,
      "name": "floatBufferViews",
      "target": 34963
    },
    {
      "buffer": 0,
      "byteLength": 33376,
      "byteOffset": 19392,
      "byteStride": 8,
      "name": "floatBufferViews",
      "target": 34962
    },
    {
      "buffer": 0,
      "byteLength": 100128,
      "byteOffset": 52768,
      "byteStride": 12,
      "name": "floatBufferViews",
      "target": 34962
    }
  ],
  "buffers": [
    {
      "byteLength": 152896,
      "uri": "scene.bin"
    }
  ],
  "extensionsUsed": [
    "KHR_materials_clearcoat"
  ],
  "materials": [
    {
      "alphaMode": "BLEND",
      "doubleSided": true,
      "extensions": {
        "KHR_materials_clearcoat": {
          "clearcoatFactor": 1.0,
          "clearcoatRoughnessFactor": 0.04
        }
      },
      "name": "diamond",
      "pbrMetallicRoughness": {
        "baseColorFactor": [
          0.7241664348743744,
          0.847090108924015,
          1.0,
          0.5124445944220491
        ],
        "metallicFactor": 0.9076558500386092,
        "roughnessFactor": 0.4151618238087421
      }
    }
  ],
  "meshes": [
    {
      "name": "Object_0",
      "primitives": [
        {
          "attributes": {
            "NORMAL": 1,
            "POSITION": 0,
            "TEXCOORD_0": 2
          },
          "indices": 3,
          "material": 0,
          "mode": 4
        }
      ]
    },
    {
      "name": "Object_1",
      "primitives": [
        {
          "attributes": {
            "NORMAL": 5,
            "POSITION": 4,
            "TEXCOORD_0": 6
          },
          "indices": 7,
          "material": 0,
          "mode": 4
        }
      ]
    },
    {
      "name": "Object_2",
      "primitives": [
        {
          "attributes": {
            "NORMAL": 9,
            "POSITION": 8,
            "TEXCOORD_0": 10
          },
          "indices": 11,
          "material": 0,
          "mode": 4
        }
      ]
    },
    {
      "name": "Object_3",
      "primitives": [
        {
          "attributes": {
            "NORMAL": 13,
            "POSITION": 12,
            "TEXCOORD_0": 14
          },
          "indices": 15,
          "material": 0,
          "mode": 4
        }
      ]
    }
  ],
  "nodes": [
    {
      "children": [
        1
      ],
      "matrix": [
        1.0,
        0.0,
        0.0,
        0.0,
        0.0,
        2.220446049250313e-16,
        -1.0,
        0.0,
        0.0,
        1.0,
        2.220446049250313e-16,
        0.0,
        -2.4025335733313113e-05,
        1.5449053535121496e-05,
        -9.8533109849086e-06,
        1.0
      ],
      "name": "Sketchfab_model"
    },
    {
      "children": [
        2,
        5,
        8,
        11
      ],
      "name": "1f86e23c219644bb9feb2711c984f7c3.3ds"
    },
    {
      "children": [
        3
      ],
      "matrix": [
        -0.08145957440137863,
        0.07027976959943771,
        0.1073618233203888,
        0.0,
        -0.0992867648601532,
        -0.11508086323738098,
        0.0,
        0.0,
        0.08128926157951355,
        -0.07013285160064697,
        0.10758671909570694,
        0.0,
        -127.22174072265625,
        -9.026802062988281,
        -49.972206115722656,
        1.0
      ],
      "name": "NGon05"
    },
    {
      "children": [
        4
      ],
      "matrix": [
        0.9918396302529964,
        -3.036266418019825,
        -0.9897662159156976,
        0.0,
        2.149209887858068,
        1.4012077374377894,
        -2.14471702181458,
        0.0,
        2.3620855222869332,
        -6.703028621046769e-08,
        2.367033836356021,
        0.0,
        84.08623656864941,
        -407.70199396040323,
        157.5440838047821,
        1.0
      ],
      "name": "3DSMeshMatrix"
    },
    {
      "mesh": 0,
      "name": "Object_4"
    },
    {
      "children": [
        6
      ],
      "matrix": [
        0.08869731426239014,
        0.1921975165605545,
        0.21123437583446503,
        0.0,
        -0.2715243697166443,
        0.1253059059381485,
        -8.912192761556526e-09,
        0.0,
        -0.08851190656423569,
        -0.1917957365512848,
        0.21167686581611633,
        0.0,
        -104.21473693847656,
        65.142578125,
        -51.11034393310547,
        1.0
      ],
      "name": "NGon04"
    },
    {
      "children": [
        7
      ],
      "matrix": [
        0.9918396302529964,
        -3.036266418019825,
        -0.9897662159156976,
        0.0,
        2.149209887858068,
        1.4012077374377894,
        -2.14471702181458,
        0.0,
        2.3620855222869332,
        -6.703028621046769e-08,
        2.367033836356021,
        0.0,
        84.08623656864941,
        -407.70199396040323,
        157.5440838047821,
        1.0
      ],
      "name": "3DSMeshMatrix"
    },
    {
      "mesh": 1,
      "name": "Object_7"
    },
    {
      "children": [
        9
      ],
      "matrix": [
        0.25080040097236633,
        -0.35530605912208557,
        0.43399688601493835,
        0.0,
        0.5019537210464478,
        0.3543148338794708,
        -1.8310768012952394e-08,
        0.0,
        -0.2502761483192444,
        0.35456326603889465,
        0.434906005859375,
        0.0,
        -53.64701843261719,
        -133.04141235351563,
        -52.48113250732422,
        1.0
      ],
      "name": "NGon03"
    },
    {
      "children": [
        10
      ],
      "matrix": [
        0.6643781794338094,
        1.3296909693319219,
        -0.6629893294777065,
        0.0,
        -0.941216759392817,
        0.9385910990982368,
        0.9392491919810154,
        0.0,
        1.1496711779109803,
        1.9976659548781583e-08,
        1.1520795674419606,
        0.0,
        -29.24285313430758,
        196.2054424362999,
        149.8540787118359,
        1.0
      ],
      "name": "3DSMeshMatrix"
    },
    {
      "mesh": 2,
      "name": "Object_10"
    },
    {
      "children": [
        12
      ],
      "matrix": [
        0.4349059760570526,
        0.0,
        0.43399685621261597,
        0.0,
        0.0,
        0.6144074201583862,
        0.0,
        0.0,
        -0.43399685621261597,
        0.0,
        0.4349059760570526,
        0.0,
        -0.012022018432617188,
        -0.012013048864901066,
        -51.495933532714844,
        1.0
      ],
      "name": "NGon02"
    },
    {
      "children": [
        13
      ],
      "matrix": [
        1.152079555554712,
        0.0,
        -1.1496711898231302,
        0.0,
        -0.0,
        1.6275845101971798,
        0.0,
        0.0,
        1.1496711898231302,
        -0.0,
        1.1520795555547119,
        0.0,
        59.217241497261824,
        0.01955225225275479,
        59.31359084900959,
        1.0
      ],
      "name": "3DSMeshMatrix"
    },
    {
      "mesh": 3,
      "name": "Object_13"
    }
  ],
  "scene": 0,
  "scenes": [
    {
      "name": "Sketchfab_Scene",
      "nodes": [
        0
      ]
    }
  ]
}
